<svg width="20" height="18" fill="none" xmlns="http://www.w3.org/2000/svg"><path d="M14.688.406c-2.32 0-3.88 1.14-4.688 1.936C9.192 1.546 7.631.406 5.312.406 2.138.406 0 2.957 0 6.08c0 4.079 3.877 6.647 9.5 11.333a.78.78 0 001 0C16.122 12.728 20 10.159 20 6.08 20 2.955 17.86.406 14.687.406zM10 15.797C4.83 11.52 1.562 9.244 1.562 6.08c0-2.043 1.289-4.111 3.75-4.111 1.099 0 2.107.33 2.998.982.665.487 1.02.986 1.043 1.018a.774.774 0 001.294 0A4.86 4.86 0 0111.69 2.95a4.975 4.975 0 012.998-.982c2.461 0 3.75 2.068 3.75 4.111 0 3.16-3.25 5.425-8.438 9.717z" fill="#fff"/></svg>