<svg width="15" height="16" fill="none" xmlns="http://www.w3.org/2000/svg"><path d="M14.916 11.374a8.045 8.045 0 00-2.873-2.895 7.945 7.945 0 00-1.511-.689 4.309 4.309 0 001.765-3.478A4.317 4.317 0 007.984 0a4.317 4.317 0 00-4.312 4.313A4.31 4.31 0 005.437 7.79a7.952 7.952 0 00-1.51.689 8.045 8.045 0 00-2.874 2.896.624.624 0 000 .626A8.002 8.002 0 007.984 16a8.002 8.002 0 006.932-4 .625.625 0 000-.626zM4.922 4.312A3.066 3.066 0 017.984 1.25a3.066 3.066 0 013.063 3.063 3.066 3.066 0 01-3.063 3.062 3.066 3.066 0 01-3.062-3.063zM7.984 14.75a6.749 6.749 0 01-5.656-3.063 6.748 6.748 0 015.657-3.063 6.748 6.748 0 015.656 3.064 6.75 6.75 0 01-5.657 3.062z" fill="#fff"/></svg>